<svg version="1.2" xmlns="http://www.w3.org/2000/svg" viewBox="0 0 250 250" width="250" height="250">
	<title>12302681_4951456-svg</title>
	<style>
		tspan { white-space:pre } 
		.s0 { fill: #07226d } 
		.s1 { fill: #00adee } 
		.s2 { fill: #ffffff } 
		.t3 { font-size: 43px;fill: #00adee;font-weight: 800;font-family: "' Montserrat" } 
		.t4 { font-size: 12px;fill: #ffffff;font-family: "' Montserrat" } 
		.s5 { fill: #ed3a5b } 
		.t6 { font-size: 43px;fill: #ed3a5b;font-weight: 800;font-family: "' Montserrat" } 
		.s7 { fill: #8bc53f } 
		.s8 { fill: none } 
		.t9 { font-size: 35px;fill: #8bc53f;font-weight: 800;font-family: "' Montserrat" } 
		.s10 { fill: #f7931e } 
		.t11 { font-size: 35px;fill: #f7931e;font-weight: 800;font-family: "' Montserrat" } 
	</style>
	<g id="BACKGROUND">
		<path id="XMLID_4_" class="s0" d="m-14-12h500v500h-500z"/>
	</g>
	<g id="OBJECTS">
		<g id="XMLID_568_">
			<g id="XMLID_7_">
				<path id="XMLID_16_" class="s1" d="m172.7 87.9v52 1.5l-1.4 0.2c0 0-1.3 0.3-3.6 0.3-3.7 0-9.8-0.7-17.3-4-2.3-1-4.8-1.6-7.4-1.6-8.2 0-14.9 5-15 5l-0.9 0.7-1-0.7c0 0-6.8-5-14.9-5-2.6 0-5.1 0.6-7.4 1.6-7.6 3.3-13.6 4-17.4 4-2.2 0-3.5-0.3-3.6-0.3l-1.3-0.2v-1.5-52c-1.2-0.1-1.8-0.2-1.8-0.2v58.7c0 0 8.1 1.8 20.3-3.9 12.1-5.6 24.3 1.4 24.3 1.4h5.6c0 0 12.1-7 24.3-1.4 12.1 5.7 20.3 3.9 20.3 3.9v-58.7c0 0-0.6 0.1-1.8 0.2z"/>
				<g id="XMLID_14_">
					<path id="XMLID_51_" fill-rule="evenodd" class="s2" d="m125.5 114.4h0.2v24.6c-3.5-2.2-13-7-22.5-2.8-12 5.3-20.1 3.7-20.1 3.7v-55c0 0 5.6 1.1 14.2-1.5v9.4c-5 1.4-8.9 1.7-11.3 1.6v1.9c2.4 0.1 6.3-0.1 11.3-1.6v9.6c-5 1.5-8.9 1.7-11.3 1.6v2c2.4 0 6.3-0.2 11.3-1.7v5.5c0 1.5 1.3 2.7 2.8 2.7h1.2c-6.9 2.7-12.3 3.1-15.3 3.1v1.9c3.3 0.1 9.4-0.4 17.3-3.9q1.7-0.7 3.3-1.1h17.1c0 0 1.8 0 1.8 0zm-3.5 11.4c-4.6-2-11.6-3.8-18.7-0.7-7.9 3.5-14 4-17.3 3.9v1.9c3.3 0.1 9.4-0.4 17.3-3.9 7.1-3.1 14.1-1.3 18.7 0.7z"/>
					<path id="XMLID_566_" fill-rule="evenodd" class="s2" d="m171 84.9v55c0 0-8 1.6-20-3.7-9.5-4.2-19.1 0.6-22.5 2.8v-24.6h19q1.7 0.4 3.3 1.1c7.9 3.5 14.1 4 17.4 3.9v-1.9c-3 0-8.5-0.4-15.4-3.1h1.2c1.6 0 2.8-1.2 2.8-2.7v-5.5c5 1.5 9 1.7 11.4 1.7v-2c-2.4 0.1-6.4-0.1-11.4-1.6v-9.6c5 1.5 9 1.7 11.4 1.6v-1.9c-2.4 0.1-6.4-0.2-11.4-1.6v-9.4c8.7 2.6 14.2 1.5 14.2 1.5zm-2.8 44.1c-3.3 0.1-9.5-0.4-17.4-3.9-7-3.1-14-1.3-18.6 0.7v1.9c4.6-2 11.6-3.8 18.6-0.7 7.9 3.5 14.1 4 17.4 3.9z"/>
				</g>
				<g id="XMLID_10_">
					<path id="XMLID_29_" class="s1" d="m160.1 76.1l-33-23.1-33.1 23.1v4.3h6.1v31.3h13v-23h12.4v23h3.1v-23h12.5v23h12.9v-31.3h6.1z"/>
				</g>
			</g>
			<g id="XMLID_106_">
				<text id="XMLID_302_" style="transform: matrix(1,0,0,1,43.197,188.634)" >
					<tspan x="0" y="0" class="t3">BOOKS
</tspan>
				</text>
				<text id="XMLID_109_" style="transform: matrix(1,0,0,1,61.435,205.687)" >
					<tspan x="0" y="0" class="t4">LIBRARY &amp; STORE
</tspan>
				</text>
			</g>
		</g>
		<g id="XMLID_619_">
			<g id="XMLID_47_">
				<path id="XMLID_704_" class="s5" d="m390.5 304.2v50.1 3.9l-2.7-2.6c-0.1 0-5.7-5.2-17.9-5.2-7.4 0-15.6 1.9-24.4 5.6l-0.6 0.2-0.6-0.2c-8.8-3.7-17-5.6-24.3-5.6-12.2 0-17.9 5.2-17.9 5.2l-2.8 2.6v-3.9-50.1c-1.2 1.1-1.8 1.8-1.8 1.8v54.9c0 0 13.7-14.4 44.6-1.3h5.6c31-13.1 44.6 1.3 44.6 1.3v-54.9c0 0-0.6-0.7-1.8-1.8z"/>
				<g id="XMLID_23_">
					<path id="XMLID_53_" fill-rule="evenodd" class="s2" d="m343.5 328.2v25.5c-29.5-11.7-42.5 0.6-42.5 0.6v-53c0 0 3.4-4 10.4-6.2 1.3 3 3.2 5.5 5.3 7.9-6.1 0.7-10.5 3-13.1 4.9v1.9c2.8-2 7.7-4.6 14.8-5q1.6 1.7 3.4 3.3 0.8 0.8 1.6 1.6c1.6 1.6 3.6 3.5 5.6 5.4-12.9-3-21.3 1.1-25.4 4v2c4.4-3.2 13.7-7.7 28.3-3.3 5.7 5.2 11.1 10 11.2 10.1q0.2 0.2 0.4 0.3zm-3.6 13.3c-19.2-9.1-31.2-3.5-36.3 0.1v2c5.1-3.7 17.1-9.3 36.3-0.2zm0-11.2c-19.2-9.1-31.2-3.5-36.3 0.1v2c5.1-3.7 17.1-9.3 36.3-0.2z"/>
					<path id="XMLID_293_" fill-rule="evenodd" class="s2" d="m388.9 301.3v53c0 0-13.1-12.3-42.6-0.6v-25.5q0.2-0.1 0.5-0.3c0-0.1 5.5-4.9 11.1-10.1 14.6-4.4 24 0.1 28.3 3.3v-2c-4-2.9-12.4-7-25.3-4 2-1.9 3.9-3.8 5.6-5.4q0.8-0.8 1.6-1.6 1.7-1.6 3.3-3.3c7.1 0.4 12 3 14.8 5v-1.9c-2.6-1.9-6.9-4.2-13.1-4.9 2.2-2.4 4.1-4.9 5.4-7.9 6.9 2.2 10.4 6.2 10.4 6.2zm-2.7 40.3c-5.1-3.6-17.1-9.2-36.2-0.1v1.9c19.1-9.1 31.1-3.5 36.2 0.2zm0-11.3c-5.1-3.6-17.1-9.2-36.2-0.1v1.9c19.1-9.1 31.1-3.5 36.2 0.2z"/>
				</g>
				<g id="XMLID_6_">
					<path id="XMLID_41_" class="s5" d="m361.6 267.5c-11.7 0-16.7 15.1-16.7 15.1 0 0-4.9-15.1-16.6-15.1-11.8 0-16.2 7.6-16.2 17.9 0 10.2 6.3 15.5 13.2 22.4 7 6.8 19.6 18 19.6 18 0 0 12.7-11.2 19.6-18 6.9-6.9 13.3-12.2 13.3-22.4 0-10.3-4.5-17.9-16.2-17.9z"/>
				</g>
			</g>
			<g id="XMLID_579_">
				<text id="XMLID_613_" style="transform: matrix(1,0,0,1,261.049,402.825)" >
					<tspan x="0" y="0" class="t6">BOOKS
</tspan>
				</text>
				<text id="XMLID_610_" style="transform: matrix(1,0,0,1,279.287,419.878)" >
					<tspan x="0" y="0" class="t4">LIBRARY &amp; STORE
</tspan>
				</text>
			</g>
		</g>
		<g id="XMLID_570_">
			<g id="XMLID_11_">
				<path id="XMLID_19_" class="s7" d="m390.5 126.8v50 3.9l-2.7-2.5c-0.1-0.1-5.7-5.3-17.9-5.3-7.4 0-15.6 1.9-24.4 5.6l-0.6 0.2-0.6-0.2c-8.8-3.7-17-5.6-24.3-5.6-12.2 0-17.9 5.2-17.9 5.3l-2.8 2.5v-3.9-50c-1.2 1-1.8 1.7-1.8 1.7v54.9c0 0 13.7-14.4 44.6-1.3h5.6c31-13.1 44.6 1.3 44.6 1.3v-54.9c0 0-0.6-0.7-1.8-1.7z"/>
				<g id="XMLID_13_">
					<path id="XMLID_562_" fill-rule="evenodd" class="s2" d="m343.5 151.1v25.2c-29.5-11.8-42.5 0.5-42.5 0.5v-53c0 0 2.7-3.2 8.3-5.4q-0.2 1.1-0.2 2.3c0 2.2 0.5 4.3 1.5 6.2-3 1-5.4 2.3-7 3.5v1.9c1.8-1.3 4.4-2.8 7.9-3.8 2.5 3.7 6.7 6.1 11.5 6.1 2 0 3.9-0.4 5.7-1.3 2.6 2.3 5.9 3.6 9.3 3.6q0.9 0 1.7-0.1v4.6c-19.1-9-31-3.4-36.1 0.2v2c5.1-3.7 17-9.2 36.1-0.3v0.1c-1.1 0.9-2.5 1.8-4.1 2.3-1.3 0.4-2.1 1.7-1.9 3.1 0.1 0.7 0.5 1.4 1.1 1.8-16.2-6-26.6-1-31.2 2.3v1.9c5.1-3.6 17.1-9.2 36.3-0.1v-2q-2-0.9-3.8-1.6 0.2 0 0.3 0zm-3.6 12.9c-19.2-9.1-31.2-3.5-36.3 0.1v2c5.1-3.7 17.1-9.3 36.3-0.2z"/>
					<path id="XMLID_552_" fill-rule="evenodd" class="s2" d="m388.9 123.8v53c0 0-13.1-12.3-42.6-0.5v-25.2h7.1q0.2 0 0.3 0-1.8 0.7-3.7 1.6v2c19.1-9.1 31.2-3.5 36.2 0.1v-1.9c-4.6-3.3-14.9-8.3-31.2-2.3 0.6-0.4 1-1.1 1.2-1.8 0.2-1.4-0.6-2.7-1.9-3.1-1.6-0.5-3.1-1.4-4.1-2.3v-0.1c19-8.9 31-3.4 36 0.3v-2c-5-3.6-17-9.2-36-0.2v-4.6q0.8 0.1 1.6 0.1c3.5 0 6.8-1.3 9.3-3.6 1.8 0.9 3.8 1.3 5.8 1.3 4.7 0 9-2.4 11.5-6.1 3.4 1 6 2.6 7.8 3.8v-1.9c-1.6-1.2-3.9-2.5-6.9-3.5 0.9-1.9 1.4-4 1.4-6.2q0-1.2-0.2-2.3c5.6 2.2 8.4 5.4 8.4 5.4zm-2.7 40.3c-5.1-3.6-17.1-9.2-36.2-0.1v1.9c19.1-9.1 31.1-3.5 36.2 0.2z"/>
				</g>
				<g id="XMLID_9_">
					<path id="XMLID_40_" class="s7" d="m373.5 111.8q0.1-0.5 0.1-1.1c0-7.4-6-13.4-13.5-13.4q-1.1 0-2.2 0.2c-2.5-4.6-7.4-7.8-13-7.8-5.6 0-10.5 3.2-12.9 7.8q-1.1-0.2-2.3-0.2c-7.4 0-13.4 6-13.4 13.4q0 0.6 0 1.1c-2.7 2-4.4 5.3-4.4 8.9 0 6.1 4.9 11.1 11.1 11.1 2.3 0 4.5-0.7 6.3-1.9 2 2.6 5.2 4.2 8.7 4.2 1.6 0 3.1-0.3 4.4-0.9v11.4c-1.4 1.3-3.4 2.9-6 3.8h6 1.9 1.2 1.9 6c-2.5-0.9-4.6-2.5-6-3.8v-11.4c1.4 0.6 2.8 0.9 4.4 0.9 3.6 0 6.7-1.6 8.8-4.2 1.8 1.2 3.9 1.9 6.3 1.9 6.1 0 11.1-5 11.1-11.1 0-3.6-1.8-6.9-4.5-8.9z"/>
				</g>
			</g>
			<g id="XMLID_569_">
				<text id="XMLID_545_" style="transform: matrix(1,0,0,1,279.286,205.687)" >
					<tspan x="0" y="0" class="t4">LIBRARY &amp; STORE
</tspan>
				</text>
				<path id="XMLID_x5F_00000096043406270752715990000015053926619394200767_x5F_" fill-rule="evenodd" class="s8" d="m277.9 104.1c17.1-17.3 40.8-28.1 67-28.1 26.3 0 50 10.8 67.1 28.1"/>
				<text id="BOOKS" style="transform: matrix(1,0,0,1,-14,-12)" >
					<tspan x="0" y="0" class="t9">BOOKS
</tspan>
				</text>
			</g>
		</g>
		<g id="XMLID_616_">
			<g id="XMLID_12_">
				<path id="XMLID_703_" class="s10" d="m172.7 338.8v52 1.4l-1.4 0.3c0 0-1.3 0.3-3.6 0.3-3.7 0-9.8-0.7-17.3-4-2.3-1.1-4.8-1.6-7.4-1.6-8.2 0-14.9 5-15 5l-0.9 0.7-1-0.7c0 0-6.8-5-14.9-5-2.6 0-5.1 0.5-7.4 1.6-7.6 3.3-13.6 4-17.4 4-2.2 0-3.5-0.3-3.6-0.3l-1.3-0.3v-1.4-52c-1.2-0.1-1.8-0.2-1.8-0.2v58.7c0 0 8.1 1.8 20.3-3.9 12.1-5.6 24.3 1.4 24.3 1.4h5.6c0 0 12.1-7 24.3-1.4 12.1 5.7 20.3 3.9 20.3 3.9v-58.7c0 0-0.6 0.1-1.8 0.2z"/>
				<g id="XMLID_554_">
					<path id="XMLID_299_" fill-rule="evenodd" class="s2" d="m119.7 332.1c2.6 0.9 4.7 2 6 2.8v55c-3.5-2.2-13-7-22.5-2.8-12 5.3-20.1 3.7-20.1 3.7v-55c0 0 8.1 1.6 20.1-3.6q1.7-0.8 3.5-1.2v5.3c-5.7 1.6-10.2 4.5-13.3 8.3-3.2 0.6-5.7 0.8-7.4 0.7v1.9c1.4 0.1 3.4 0 5.9-0.4q-2 3.2-2.8 7.1-0.3 1.6-0.3 2.9-1.6 0.1-2.8 0v2q1.2 0 3-0.1c0.3 1.7 1 2.9 1.7 3.8 1.5 1.8 3.9 2.8 6.7 2.8 5.3 0 11.6-3.3 16.1-8.4q1.3-1.5 2.4-3.2c2.3 0.4 4.4 1.1 6.1 1.9v-1.9c-1.5-0.7-3.2-1.3-5.1-1.7 1.5-2.8 2.4-5.7 2.8-8.8q1.2 0.4 2.3 0.9v-1.9q-1-0.5-2.1-0.9 0.1-2-0.2-4.1zm2.3 44.7c-4.6-2-11.6-3.8-18.7-0.7-7.9 3.5-14 3.9-17.3 3.8v2c3.3 0 9.4-0.4 17.3-3.9 7.1-3.1 14.1-1.3 18.7 0.7zm0-11.5c-4.6-2-11.6-3.8-18.7-0.7-7.9 3.5-14 3.9-17.3 3.9v1.9c3.3 0.1 9.4-0.4 17.3-3.9 7.1-3.1 14.1-1.3 18.7 0.7z"/>
					<path id="XMLID_281_" fill-rule="evenodd" class="s2" d="m171 335.8v55c0 0-8 1.6-20-3.7-9.5-4.2-19.1 0.6-22.5 2.8v-55c3-1.8 10.5-5.6 18.6-4v5.3q-5 1.5-8.7 4c-2.3 0.4-4.5 1.2-6.2 2v1.9q1.3-0.6 2.8-1.1c-2.9 3-4.9 6.6-5.7 10.9-0.9 4.5 0.4 7.1 1.6 8.6q1.1 1.3 2.8 2.1-0.8 0.3-1.5 0.6v1.9c1.5-0.7 3.4-1.3 5.5-1.8q1.8 0 3.8-0.5c2.9-0.2 6.1 0.2 9.3 1.6 7.9 3.5 14.1 4 17.4 3.9v-1.9c-3.3 0-9.5-0.4-17.4-3.9-1.7-0.8-3.3-1.2-4.9-1.5 2.4-1.2 4.8-3 6.8-5.1q0.8-0.8 1.5-1.7c6.3 2.3 11.2 2.6 14 2.6v-2c-2.6 0.1-7.1-0.2-12.8-2.1 1.8-2.6 3.2-5.5 3.9-8.5 3.9 0.9 6.9 1.1 8.9 1v-1.9c-1.9 0.1-4.8-0.1-8.5-0.9q0.4-2.3 0.4-4.6 0-0.1 0-0.2v-4.4c6.8 1.4 10.9 0.6 10.9 0.6zm-2.8 44.1c-3.3 0.1-9.5-0.4-17.4-3.9-7-3.1-14-1.3-18.6 0.7v1.9c4.6-2 11.6-3.8 18.6-0.7 7.9 3.5 14.1 4 17.4 3.9z"/>
				</g>
				<g id="XMLID_291_">
					<g id="XMLID_67_">
						<path id="XMLID_68_" fill-rule="evenodd" class="s10" d="m157.3 304.2v35.4c0.6 20.9-28.5 31.3-25.3 14.8 2.1-10.5 11.2-14.5 17.8-16.1v-15.1h-32.8v14.2c2.8 22.4-28.5 34.1-25.2 17 2.1-10.4 11-14.5 17.7-16v-22.7h-0.1v-11.5zm-7.5 11.5h-32.9v4.2h32.9z"/>
					</g>
				</g>
			</g>
			<g id="XMLID_572_">
				<text id="XMLID_576_" style="transform: matrix(1,0,0,1,61.435,419.878)" >
					<tspan x="0" y="0" class="t4">LIBRARY &amp; STORE
</tspan>
				</text>
				<path id="XMLID_x5F_00000116204524892896584320000007825743270608065957_x5F_" fill-rule="evenodd" class="s8" d="m60 318.3c17.1-17.3 40.8-28.1 67.1-28.1 26.2 0 49.9 10.8 67 28.1"/>
				<text id="BOOKS" style="transform: matrix(1,0,0,1,-14,-12)" >
					<tspan x="0" y="0" class="t11">BOOKS
</tspan>
				</text>
			</g>
		</g>
	</g>
</svg>